<svg width="792" height="160" viewBox="0 0 792 160" fill="none" xmlns="http://www.w3.org/2000/svg">
<g clip-path="url(#clip0_2672_5844)">
<path d="M470.065 127.944C480.441 127.944 485.838 121.94 488.307 116.566H489.06V126.894H506.632V40.9121H488.851V73.2392H488.307C485.922 67.9913 480.776 61.5679 470.023 61.5679C455.924 61.5679 444 72.5675 444 94.7347C444 116.314 455.422 127.944 470.065 127.944ZM475.713 113.711C466.969 113.711 462.2 105.902 462.2 94.6507C462.2 83.4832 466.886 75.8002 475.713 75.8002C484.374 75.8002 489.227 83.1473 489.227 94.6507C489.227 106.154 484.29 113.711 475.713 113.711Z" fill="white"/>
<path d="M521.286 126.894H539.109V62.4075H521.286V126.894ZM530.239 54.0948C535.553 54.0948 539.904 50.0224 539.904 45.0264C539.904 40.0724 535.553 36 530.239 36C524.967 36 520.616 40.0724 520.616 45.0264C520.616 50.0224 524.967 54.0948 530.239 54.0948Z" fill="white"/>
<path d="M582.338 152C600.705 152 613.759 143.603 613.759 127.524V62.4075H596.061V73.2392H595.392C593.007 67.9913 587.777 61.5679 577.025 61.5679C562.925 61.5679 551.001 72.5675 551.001 94.5248C551.001 115.978 562.59 125.97 577.067 125.97C587.317 125.97 593.049 120.806 595.392 115.474H596.145V127.272C596.145 135.71 590.497 139.153 582.756 139.153C574.891 139.153 570.916 135.71 569.452 132.226L552.968 134.451C555.101 144.191 565.017 152 582.338 152ZM582.715 112.536C573.97 112.536 569.201 105.566 569.201 94.4408C569.201 83.4832 573.887 75.8002 582.715 75.8002C591.375 75.8002 596.228 83.1473 596.228 94.4408C596.228 105.818 591.292 112.536 582.715 112.536Z" fill="white"/>
<path d="M627.942 126.894H645.765V62.4075H627.942V126.894ZM636.895 54.0948C642.209 54.0948 646.56 50.0224 646.56 45.0264C646.56 40.0724 642.209 36 636.895 36C631.624 36 627.272 40.0724 627.272 45.0264C627.272 50.0224 631.624 54.0948 636.895 54.0948Z" fill="white"/>
<path d="M694.224 62.4075H682.133V46.9577H664.31V62.4075H655.524V75.8422H664.31V109.429C664.226 122.066 672.803 128.321 685.731 127.776C690.333 127.608 693.597 126.684 695.396 126.096L692.592 112.788C691.714 112.955 689.831 113.375 688.157 113.375C684.601 113.375 682.133 112.032 682.133 107.078V75.8422H694.224V62.4075Z" fill="white"/>
<path d="M724.159 128.111C733.657 128.111 739.807 123.955 742.945 117.952H743.447V126.894H760.349V83.3992C760.349 68.0333 747.38 61.5679 733.071 61.5679C717.674 61.5679 707.55 68.9569 705.081 80.7123L721.565 82.0557C722.779 77.7734 726.586 74.6247 732.987 74.6247C739.054 74.6247 742.526 77.6895 742.526 82.9794V83.2313C742.526 87.3876 738.133 87.9334 726.963 89.025C714.244 90.2005 702.822 94.4828 702.822 108.883C702.822 121.646 711.901 128.111 724.159 128.111ZM729.264 115.768C723.783 115.768 719.85 113.207 719.85 108.295C719.85 103.257 723.992 100.78 730.268 99.8987C734.159 99.3529 740.518 98.4292 742.652 97.0018V103.845C742.652 110.604 737.087 115.768 729.264 115.768Z" fill="white"/>
<path d="M792 40.9121H774.177V126.894H792V40.9121Z" fill="white"/>
<rect x="392" y="80" width="36" height="16" fill="white"/>
<path d="M354 60H374C374 44 360 32 338 32C316 32 302 44 302 60C302 74 315.78 82.8566 328.711 85.7235C348 90 356 92 356 100C356 108 348 112 338 112C328 112 320 108 320 98H300C300 118 314 128 338 128C360 128 376 118 376 99.9981C376 84 364 76.2146 347.195 72.5435C337.003 70.317 322 68 322 60C322 54 328.054 48 338 48C347.946 48 354 52 354 60Z" fill="white"/>
<path d="M288 66C286 44 270 32 247.937 32C224 32 204 50 204 80C204 110 224 128 247.937 128C270 128 286 116 288 94H268C266 106 256 110 247.937 110C234 110 224 100 224 80C224 60 234 50 247.937 50C256 50 266 54 268 66H288Z" fill="white"/>
<path d="M188 34H168V126H188V34Z" fill="white"/>
<circle cx="116" cy="116" r="12" fill="white"/>
<circle cx="116" cy="80" r="12" fill="white"/>
<circle cx="116" cy="44" r="12" fill="white"/>
<circle cx="72" cy="128" r="16" fill="white"/>
<circle cx="72" cy="80" r="16" fill="white"/>
<circle cx="72" cy="32" r="16" fill="white"/>
<circle cx="20" cy="140" r="20" fill="white"/>
<circle cx="20" cy="80" r="20" fill="white"/>
<circle cx="20" cy="20" r="20" fill="white"/>
</g>
<defs>
<clipPath id="clip0_2672_5844">
<rect width="792" height="160" fill="white"/>
</clipPath>
</defs>
</svg>
