<svg width="172" height="172" viewBox="0 0 172 172" fill="none" xmlns="http://www.w3.org/2000/svg">
<path d="M86.4297 60.0156C108.948 60.0156 129.206 63.2028 143.729 68.2666C151.004 70.8033 156.677 73.7556 160.473 76.8848C164.289 80.0306 165.859 83.0449 165.859 85.7578C165.859 88.4706 164.288 91.4842 160.473 94.6299C156.677 97.7591 151.004 100.711 143.729 103.248C129.206 108.312 108.948 111.499 86.4297 111.499C63.9117 111.499 43.6536 108.312 29.1309 103.248C21.8555 100.711 16.1816 97.7591 12.3857 94.6299C8.57021 91.4843 7.00012 88.4705 7 85.7578C7 83.045 8.56994 80.0305 12.3857 76.8848C16.1816 73.7555 21.8555 70.8034 29.1309 68.2666C43.6536 63.2028 63.9118 60.0156 86.4297 60.0156Z" stroke="white" stroke-width="6"/>
<path d="M64.1342 72.8863C75.3932 53.3852 88.2824 37.4346 99.9292 27.3895C105.764 22.3574 111.157 18.9204 115.765 17.1977C120.397 15.4659 123.793 15.6128 126.142 16.9692C128.492 18.3257 130.316 21.1929 131.133 26.0703C131.945 30.9221 131.665 37.3113 130.224 44.8802C127.348 59.9892 119.979 79.1269 108.72 98.628C97.4612 118.129 84.572 134.08 72.9252 144.125C67.0906 149.157 61.697 152.595 57.0891 154.317C52.4572 156.049 49.0621 155.902 46.7128 154.545C44.3634 153.189 42.5377 150.322 41.7213 145.445C40.9093 140.593 41.1896 134.203 42.6303 126.634C45.5063 111.525 52.8752 92.3873 64.1342 72.8863Z" stroke="white" stroke-width="6"/>
<path d="M64.1352 98.6284C52.8762 79.1274 45.5073 59.9897 42.6313 44.8807C41.1906 37.3119 40.9108 30.9226 41.7228 26.0708C42.5392 21.1932 44.3643 18.3257 46.7137 16.9692C49.0632 15.6129 52.4584 15.4665 57.0905 17.1982C61.6984 18.9209 67.0916 22.3579 72.9261 27.39C84.5729 37.4351 97.4621 53.3857 108.721 72.8867C119.98 92.3879 127.349 111.525 130.225 126.634C131.666 134.204 131.946 140.593 131.134 145.445C130.318 150.322 128.493 153.189 126.143 154.545C123.794 155.902 120.398 156.05 115.766 154.318C111.158 152.595 105.765 149.157 99.9302 144.125C88.2834 134.08 75.3941 118.13 64.1352 98.6284Z" stroke="white" stroke-width="6"/>
<circle cx="86.4289" cy="85.215" r="11.0998" stroke="white" stroke-width="6"/>
</svg>
